<?xml version="1.0" encoding="utf-8"?>
<!-- Generator: Adobe Illustrator 19.2.1, SVG Export Plug-In . SVG Version: 6.00 Build 0)  -->
<svg version="1.1" id="Layer_1" xmlns="http://www.w3.org/2000/svg" xmlns:xlink="http://www.w3.org/1999/xlink" x="0px" y="0px"
	 viewBox="0 0 210 145" style="enable-background:new 0 0 210 145;" xml:space="preserve">
<style type="text/css">
	.st0{fill:#C09A5E;}
</style>
<g>
	<g>
		<path class="st0" d="M105.1,126.6c0-3.1-1.3-5.9-3.6-7.9v-0.1h-0.1c-0.3-0.2-0.6-0.5-0.9-0.7c-1.7-1.2-3.8-1.8-5.9-1.8
			c-2.6,0-4.9,0.9-6.7,2.5h-0.1v0.1c-2.2,1.9-3.6,4.8-3.6,7.9v7.7c0,5.8,4.7,10.5,10.5,10.5c5.8,0,10.5-4.7,10.5-10.5V126.6z
			 M85.8,126.6c0-2.1,0.7-4,2-5.6v18.8c-1.2-1.5-2-3.5-2-5.6V126.6z M89.4,141.4v-10v-1.6v-10.3c1.5-1.1,3.3-1.7,5.2-1.7
			c1.8,0,3.5,0.5,4.9,1.5c0.1,0.1,0.2,0.1,0.3,0.2v21.9c-1.5,1.1-3.3,1.7-5.2,1.7C92.7,143.1,90.9,142.5,89.4,141.4z M103.5,134.3
			c0,2.1-0.7,4-2,5.6v-18.8c1.3,1.6,2,3.5,2,5.6V134.3z"/>
		<path class="st0" d="M160.7,129.8c1.9-1.3,3.1-3.5,3.1-6c0-4.1-3.3-7.4-7.4-7.4h-2.3h-5.7h-1.5v1.6h1.5v24.6h-1.5v1.6h1.5v0h10.3
			c4.1,0,7.4-3.3,7.4-7.4C166.2,133.6,163.9,130.7,160.7,129.8z M156.5,118.1c3.2,0,5.7,2.6,5.7,5.7c0,3.2-2.6,5.7-5.7,5.7h-2.7
			v-11.5h0.4H156.5z M152.1,142.7l-2,0v-24.6h2V142.7z M158.8,142.7h-5v-11.5h2.7h2.3c3.2,0,5.7,2.6,5.7,5.7
			C164.5,140.1,161.9,142.7,158.8,142.7z"/>
		<path class="st0" d="M111.4,144.4h1.9h3.9h0.6h2.3h9v-9h-1.6c0,4.1-3.3,7.3-7.3,7.3h-2.3h-0.6h-1.8v-24.7h1.8v-1.6h-4.4h-3.6h-0.6
			v1.6h0.6h1.2v24.7h-1.2h-0.6v1.6h0.6H111.4z M127.4,140.6v2.2h-2.2C126,142.2,126.8,141.4,127.4,140.6z M113.8,142.8h-1.9v-24.7
			h1.9V142.8z"/>
		<path class="st0" d="M20.4,116.5H0v9h1.6c0-3.5,2.5-6.5,5.8-7.2v24.6H5.7v1.6h8.6v-1.6h-1.7v-24.6c3.4,0.6,6,3.6,6,7.2h1.6V116.5z
			 M1.6,120.3v-2.2h2.2C3,118.7,2.2,119.4,1.6,120.3z M11,142.8H9.1v-24.7h1H11c0,0,0,0,0.1,0V142.8z M16.5,118.1h2.2v2.2
			C18.1,119.4,17.4,118.7,16.5,118.1z"/>
		<path class="st0" d="M202.1,129l6-10.9h1.4v-1.6h-4.4v1.6h1.2l-5,9l-4-9h1.4v-1.6h-3.2h-1.8h-3.9v1.6h1.7l6.6,14.8l-5.5,10h-2.5
			v1.6h6.5v-1.6h-2.2l4.5-8.1l3.7,8.1h-1.5v1.6h4.4h3.3h1.1v-1.6h-1.8L202.1,129z M206.4,142.9h-0.9h-1.2l-11.1-24.8h0.5h1.8
			c0,0,0,0,0,0L206.4,142.9z"/>
		<path class="st0" d="M29.3,131.3h9.5v11.6h-1.5v1.6H40h1.2h3.9v-1.6h-1.4v-24.7h1.4v-1.6h-3.9h-2.4h-1.5v1.6h1.5v9.1v1.2v1.2h-9.5
			v-11.5h1.4v-1.6h-3.9h-2.4h-1.5v1.6h1.5v24.7h-1.5v1.6h2.6h1.2h3.9v-1.6h-1.4V131.3z M42.1,142.8h-1.6v-24.7h1.6V142.8z
			 M27.7,142.8h-0.9h-0.7v-24.7h0.7h0.9V142.8z"/>
		<path class="st0" d="M50.2,142.6h-1.7v1.6h2.8h1.3H57h2.8h8.8v-8.9H67c0,4-3.2,7.3-7.2,7.3H57h-1.7v-11.5h4.5v-1.6h-4.5v-11.4H57
			h2.8c4,0,7.2,3.3,7.2,7.3h1.6v-8.9h-8.8H57h-4.4h-1.3h-2.8v1.6h1.7V142.6z M67,140.4v2.2h-2.2C65.7,142,66.4,141.3,67,140.4z
			 M67,118.1v2.2c-0.6-0.9-1.3-1.6-2.2-2.2H67z M53.7,142.6h-1.9v-24.5h1.9V142.6z"/>
		<path class="st0" d="M132.9,125.4v-9h-9v1.6c4.1,0,7.3,3.3,7.3,7.3H132.9z M129,118.1h2.2v2.2C130.7,119.4,129.9,118.7,129,118.1z
			"/>
		<path class="st0" d="M189.5,126.6c0-3.1-1.3-5.9-3.6-7.9v-0.1h-0.1c-0.3-0.2-0.6-0.5-0.9-0.7c-1.7-1.2-3.8-1.8-5.9-1.8
			c-2.6,0-4.9,0.9-6.7,2.5h-0.1v0.1c-2.2,1.9-3.6,4.8-3.6,7.9v7.7c0,5.8,4.7,10.5,10.5,10.5c5.8,0,10.5-4.7,10.5-10.5V126.6z
			 M170.2,126.6c0-2.1,0.7-4,2-5.6v18.8c-1.2-1.5-2-3.5-2-5.6V126.6z M173.9,141.4v-10v-1.6v-10.3c1.5-1.1,3.3-1.7,5.2-1.7
			c1.8,0,3.5,0.5,4.9,1.5c0.1,0.1,0.2,0.1,0.3,0.2v21.9c-1.5,1.1-3.3,1.7-5.2,1.7C177.1,143.1,175.3,142.5,173.9,141.4z
			 M187.9,134.3c0,2.1-0.7,4-2,5.6v-18.8c1.3,1.6,2,3.5,2,5.6V134.3z"/>
	</g>
	<g>
		<rect x="59.1" y="98.9" class="st0" width="91.7" height="1.8"/>
		<rect x="67.5" y="89.2" class="st0" width="74.8" height="1.8"/>
		<path class="st0" d="M104.6,71.8l-5.1,5.1l5.1,5.1l5.1-5.1L104.6,71.8z M102.1,76.9l2.6-2.6l2.6,2.6l-2.6,2.6L102.1,76.9z"/>
		<path class="st0" d="M95.5,76.9c0-2.4-1.3-3.8-3.7-3.8c-2.4,0-3.7,1.4-3.7,3.8c0,2.3,1.4,3.7,3.7,3.7
			C94.2,80.6,95.5,79.3,95.5,76.9z M89.9,76.9c0-1.4,0.5-2,1.9-2c1.4,0,1.9,0.6,1.9,2c0,1.4-0.5,1.9-1.9,1.9
			C90.4,78.8,89.9,78.3,89.9,76.9z"/>
		<path class="st0" d="M121.1,76.9c0-2.4-1.3-3.8-3.7-3.8c-2.4,0-3.7,1.4-3.7,3.8c0,2.3,1.4,3.7,3.7,3.7
			C119.8,80.6,121.1,79.3,121.1,76.9z M115.5,76.9c0-1.4,0.5-2,1.9-2c1.4,0,1.9,0.6,1.9,2c0,1.4-0.5,1.9-1.9,1.9
			C116,78.8,115.5,78.3,115.5,76.9z"/>
		<path class="st0" d="M45.4,96.6c-3-4.5-5.1-5.3-9.5-3l-4.8-7.2c11-6.2,13.7-13.5,9.7-25.8l-1.7,0.6c3.9,11.8,1.3,18.3-9.7,24.1
			l-0.9,0.5l6.7,10.1l0.7-0.4c4-2.3,5.2-2,7.9,2.1c0.2,0.3,0.5,0.9,0.8,1.4H34.2L28.7,97l-6.8-15.9l7.4-5.8l-6.5-7.2l-1.3,1.2
			l5.2,5.8l-6.9,5.4l7.7,17.9l6.5,2.3h13.8L47,99.4C46.9,99.3,45.9,97.4,45.4,96.6z"/>
		<path class="st0" d="M47.3,13l-1.7-0.6l-1.8,4.9L57,22.2l-6.7,18.9l1.7,0.6l6.7-18.9l2.9,1.1l6.3,15l13.9,9.9l0.3-1.2
			c0.4-1.3,1.6-4.6,3.3-5.5v12.5l-24-9.4L45.6,57.5h10c2.3,0,3.9,0.6,4.8,1.8c1.2,1.5,0.9,3.8,0.5,5.4c-0.6,2.3-1.6,4.6-2.6,6.9
			c-0.4,1-0.9,2-1.3,3.1c-0.1,0.2-0.2,0.4-0.3,0.6c-0.1,0.2-0.2,0.3-0.3,0.6L55.9,77l9.2,0l0.2-0.5c0.6-1.2,2.2-3.9,3.9-5.3v11.2
			H47.8c0.1-0.1,0.1-0.2,0.2-0.3c0.1-0.2,0.3-0.4,0.4-0.6c0.6-0.9,1.2-1.7,1.6-2.7c0.9-2,1.9-4.9-0.2-7.6c-1.4-1.9-3.3-1.8-5.1-1.5
			l0.3,1.7c1.6-0.3,2.6-0.2,3.5,0.9c1.2,1.5,1.2,3.3,0,5.8c-0.4,0.8-0.9,1.6-1.5,2.5c-0.1,0.2-0.3,0.4-0.4,0.6
			c-0.2,0.3-0.5,0.7-0.8,1c-0.2,0.2-0.3,0.4-0.5,0.6l-1.2,1.4h26.9V68.5l-1.2,0.4c-2.7,0.9-5,4.9-5.8,6.3h-5.3c0,0,0,0,0,0
			c0.4-1,0.8-2,1.3-3c1-2.3,2-4.7,2.7-7.1c0.7-2.9,0.4-5.3-0.8-6.9c-1.2-1.6-3.3-2.4-6.2-2.5h-4.9l11-8.6l25.5,10V40.1h-0.9
			c-3,0-4.8,3.8-5.5,5.9l-11.5-8.2l-6.4-15.2l-16.7-6.2L47.3,13z"/>
		<path class="st0" d="M82.2,22.3v-0.5c0-4.1,1.3-5,3.2-5.9v9.8c-1.4,1.2-7.1,5.9-13.6,11.2l1.1,1.4c7.5-6,13.9-11.4,14-11.5
			l0.3-0.3V13l-1.3,0.6c-0.2,0.1-0.5,0.2-0.7,0.3c-2.2,1-4.6,2.2-4.8,7.3l-13,8.4l1,1.5L82.2,22.3z"/>
		<path class="st0" d="M41,37l5.3-14.8l-1.7-0.6l-5.2,14.5l-1.3,1.7L15.8,64.6L14,62.8l15.3-21.2l-5.1-12.2l-9.3,6.2
			c-0.6-0.5-1.3-0.7-2.2-0.8c-1.2-0.1-2.2,0.1-2.9,0.7C9,35.9,8.6,36.8,8.5,38c-0.1,1.2,0.1,2.1,0.7,2.8c0.6,0.7,1.5,1.1,2.7,1.2
			c0.2,0,0.3,0,0.5,0c0.9,0,1.7-0.2,2.3-0.7c0.7-0.6,1.1-1.5,1.2-2.6c0.1-0.6,0-1.2-0.1-1.7l7.6-5l3.9,9.4L11.6,63l4.3,4.2
			l23.6-28.3L41,37z M14.2,38.5c-0.1,0.7-0.3,1.2-0.6,1.4c-0.3,0.3-0.8,0.4-1.5,0.3c-0.7-0.1-1.2-0.3-1.5-0.6
			c-0.3-0.3-0.4-0.8-0.3-1.5c0.1-0.7,0.3-1.1,0.6-1.4c0.3-0.2,0.7-0.3,1.2-0.3c0.1,0,0.3,0,0.4,0c0.7,0.1,1.2,0.3,1.4,0.6
			C14.1,37.3,14.2,37.8,14.2,38.5z"/>
		<path class="st0" d="M31.4,26.1l0.9,1.7l1.3-3.4l4.7-13.1l-1.7-0.6l-4.5,12.8c-2.4-5.6-1.6-11.1,2.4-16.6l0.3-0.5L32,1.8h24.2V9
			c-1.8,0.5-3.1,2.1-3.1,4c0,2.3,1.8,4.1,4.1,4.1h0.7v-1.8h-0.7c-1.3,0-2.3-1-2.3-2.3c0-1.2,0.9-2.1,2-2.3H58V0H28.8l3.9,6.3
			C28.2,12.8,27.8,19.5,31.4,26.1z"/>
		
			<rect x="29.6" y="24.1" transform="matrix(0.3352 -0.9421 0.9421 0.3352 1.9346 52.7942)" class="st0" width="17.5" height="1.8"/>
		
			<rect x="36.3" y="35.3" transform="matrix(0.3352 -0.9421 0.9421 0.3352 -3.1224 67.9293)" class="st0" width="20.6" height="1.8"/>
		<path class="st0" d="M188.5,69.4l-1.3-1.2l-6.5,7.2l7.4,5.8L181.3,97l-5.5,1.9h-10.5c0.3-0.5,0.6-1.1,0.8-1.4
			c2.7-4,3.8-4.3,7.9-2.1l0.7,0.4l6.7-10.1l-0.9-0.5c-10.9-5.8-13.6-12.4-9.7-24.1l-1.7-0.6c-4.1,12.3-1.4,19.6,9.7,25.8l-4.8,7.2
			c-4.4-2.3-6.5-1.5-9.5,3c-0.5,0.8-1.6,2.8-1.6,2.8l-0.7,1.3h13.8l6.5-2.3l7.7-17.9l-6.9-5.4L188.5,69.4z"/>
		<path class="st0" d="M129.2,45.9c-0.8-2-2.6-5.9-5.5-5.9h-0.9v17.1l25.5-10l11,8.6h-4.9c-2.9,0-4.9,0.9-6.1,2.5
			c-1.3,1.6-1.5,4-0.8,6.9c0.6,2.5,1.7,4.8,2.6,7.1c0.4,1,0.9,2,1.3,3c0,0,0,0,0,0h-5.3c-0.8-1.5-3.2-5.5-5.8-6.3l-1.2-0.4v15.7
			h26.9l-1.2-1.4c-0.2-0.2-0.3-0.4-0.5-0.6c-0.3-0.4-0.6-0.7-0.8-1c-0.1-0.2-0.3-0.4-0.4-0.6c-0.6-0.8-1.1-1.6-1.5-2.5
			c-1.1-2.5-1.1-4.3,0-5.8c0.8-1.1,1.8-1.1,3.5-0.9l0.3-1.7c-1.8-0.3-3.7-0.3-5.1,1.5c-2.1,2.7-1.1,5.6-0.2,7.6
			c0.4,1,1.1,1.9,1.6,2.7c0.1,0.2,0.3,0.4,0.4,0.6c0.1,0.1,0.1,0.2,0.2,0.3h-21.3V71.3c1.7,1.3,3.3,4.1,3.9,5.3L145,77h9.2l-0.6-1.3
			c-0.1-0.2-0.2-0.4-0.3-0.6c-0.1-0.3-0.2-0.4-0.3-0.6c-0.4-1-0.9-2.1-1.3-3.1c-1-2.2-2-4.5-2.6-6.9c-0.4-1.6-0.7-3.9,0.5-5.4
			c0.9-1.1,2.5-1.7,4.8-1.8h10l-15.8-12.4l-24,9.4V42.1c1.7,0.9,3,4.2,3.3,5.5l0.3,1.2l13.9-9.9l6.3-15l2.9-1.1l6.7,18.9l1.7-0.6
			L153,22.2l13.2-4.9l-1.8-4.9l-1.7,0.6l1.2,3.2l-16.7,6.2l-6.4,15.2L129.2,45.9z"/>
		<path class="st0" d="M137.1,38.2l1.1-1.4c-6.5-5.3-12.3-10-13.6-11.2v-9.8c1.9,0.9,3.2,1.9,3.2,5.9v0.5l13.8,8.9l1-1.5l-13-8.4
			c-0.1-5.2-2.6-6.3-4.8-7.3c-0.2-0.1-0.5-0.2-0.7-0.3l-1.3-0.6v13.4l0.3,0.3C123.2,26.8,129.7,32.2,137.1,38.2z"/>
		<path class="st0" d="M155.1,13c0,1.3-1,2.3-2.3,2.3h-0.7v1.8h0.7c2.3,0,4.1-1.8,4.1-4.1c0-1.9-1.3-3.5-3.1-4V1.8H178l-2.9,4.6
			l0.3,0.5c4,5.6,4.8,11,2.4,16.6l-4.5-12.8l-1.7,0.6l4.7,13.2l1.3,3.4l0.9-1.7c3.6-6.6,3.2-13.3-1.3-19.8l3.9-6.3H152v10.7h1.1
			C154.2,10.8,155.1,11.8,155.1,13z"/>
		<path class="st0" d="M201.5,38c-0.1-1.2-0.5-2.1-1.2-2.6c-0.7-0.6-1.7-0.8-2.9-0.7h0c-0.9,0.1-1.7,0.4-2.2,0.8l-9.3-6.2l-5.1,12.2
			L196,62.8l-1.9,1.8l-22.3-26.8l-1.3-1.7l-5.2-14.5l-1.7,0.6l5.2,14.7l0,0.1l1.5,1.9L194,67.2l4.3-4.2l-15.7-21.7l3.9-9.4l7.6,5
			c-0.1,0.5-0.2,1.1-0.1,1.7c0.1,1.2,0.5,2.1,1.2,2.6c0.6,0.5,1.4,0.7,2.3,0.7c0.2,0,0.3,0,0.5,0c1.2-0.1,2.1-0.5,2.7-1.2
			C201.4,40.1,201.6,39.1,201.5,38z M199.4,39.6c-0.3,0.3-0.8,0.5-1.5,0.6c-0.7,0.1-1.2,0-1.5-0.3c-0.3-0.3-0.5-0.8-0.6-1.4
			c-0.1-1.4,0.4-1.9,1.7-2.1h0c0.1,0,0.3,0,0.4,0c0.5,0,0.9,0.1,1.2,0.3c0.3,0.3,0.5,0.7,0.6,1.4C199.8,38.8,199.7,39.3,199.4,39.6z
			"/>
		
			<rect x="170.7" y="16.3" transform="matrix(0.9421 -0.3352 0.3352 0.9421 1.5413 58.9819)" class="st0" width="1.8" height="17.5"/>
		
			<rect x="162.5" y="25.9" transform="matrix(0.9421 -0.3352 0.3352 0.9421 -2.6711 56.8798)" class="st0" width="1.8" height="20.6"/>
		<path class="st0" d="M101.1,34.9l3-6.3v21.7l-11.1-3V37.1h-1.8v11.7l13.8,3.7l13.8-3.7V37.1H117v10.3l-11.1,3V28.6l3,6.3l14.2,1.2
			l-4.3-9.8L105,23.1l-13.8,3.2l-4.3,9.8L101.1,34.9z M117.5,27.9l2.7,6.2l-10.2-0.9l-3.8-8L117.5,27.9z M92.5,27.9l11.3-2.6l-3.8,8
			l-10.2,0.9L92.5,27.9z"/>
	</g>
</g>
</svg>
