<?xml version="1.0" encoding="utf-8"?>
<!-- Generator: Adobe Illustrator 19.2.1, SVG Export Plug-In . SVG Version: 6.00 Build 0)  -->
<svg version="1.1" id="Layer_1" xmlns="http://www.w3.org/2000/svg" xmlns:xlink="http://www.w3.org/1999/xlink" x="0px" y="0px"
	 viewBox="0 0 80 80" style="enable-background:new 0 0 80 80;" xml:space="preserve">
<style type="text/css">
	.st0{fill:#C09A5E;}
</style>
<g>
	<path class="st0" d="M66.9,13.8c-9-9-18.1-13.6-27.1-13.8c-9-0.2-17.9,4.2-26.7,12.9c-17.7,17.7-17.5,35.9,0.6,54
		c8.7,8.7,17.5,13,26.3,13c0.1,0,0.1,0,0.2,0c8.9-0.1,17.8-4.5,26.6-13.3C84.4,49.1,84.4,31.3,66.9,13.8z M64.8,64.5
		C56.5,72.7,48.3,76.9,40.2,77c0,0-0.1,0-0.1,0c-8,0-16.2-4.1-24.2-12.2c-17-17-17.2-33.3-0.6-49.8c8-8,16.1-12,24.1-12
		c0.1,0,0.3,0,0.4,0c8.2,0.1,16.6,4.5,25,12.9C81.1,32.2,81.1,48.2,64.8,64.5z"/>
	<path class="st0" d="M46.5,35.2l23.8,2.1l-7.2-16.4L40,15.4l-23.1,5.4L9.7,37.2l23.8-2.1l5-10.6v36.5l-18.6-5V38.8h-3v19.6L40,64.5
		l23.1-6.1V38.8h-3v17.3l-18.6,5V24.6L46.5,35.2z M61,23.4l4.6,10.4l-17.1-1.5L42.1,19L61,23.4z M31.5,32.3l-17.1,1.5L19,23.4
		L37.9,19L31.5,32.3z"/>
</g>
</svg>
